<svg width="128" height="170" viewBox="0 0 128 170" fill="none" xmlns="http://www.w3.org/2000/svg">
<path d="M32.0004 170C49.6737 170 64.0008 157.315 64.0008 141.667V113.333H32.0004C14.327 113.333 0 126.019 0 141.667C0 157.315 14.327 170 32.0004 170Z" fill="#0ACF83"/>
<path d="M0 85.0001C0 69.352 14.327 56.6667 32.0004 56.6667H64.0008V113.333H32.0004C14.327 113.333 0 100.648 0 85.0001Z" fill="#A259FF"/>
<path d="M0 28.3333C0 12.6853 14.327 0 32.0004 0H64.0008V56.6667H32.0004C14.327 56.6667 0 43.9814 0 28.3333Z" fill="#F24E1E"/>
<path d="M64 0H96.0004C113.674 0 128.001 12.6853 128.001 28.3333C128.001 43.9814 113.674 56.6667 96.0004 56.6667H64V0Z" fill="#FF7262"/>
<path d="M128.001 84.9998C128.001 100.648 113.674 113.333 96.0004 113.333C78.327 113.333 64 100.648 64 84.9998C64 69.3518 78.327 56.6665 96.0004 56.6665C113.674 56.6665 128.001 69.3518 128.001 84.9998Z" fill="#1ABCFE"/>
</svg>
