<svg width="140" height="170" viewBox="0 0 140 170" fill="none" xmlns="http://www.w3.org/2000/svg">
<path fill-rule="evenodd" clip-rule="evenodd" d="M0.159527 1.57685C0.246939 2.44395 2.85017 37.2137 5.94428 78.8425C9.03812 120.471 11.6198 154.83 11.6812 155.195C11.7829 155.798 14.4571 156.506 40.8965 162.929L70 170L99.1035 162.929C125.543 156.506 128.217 155.798 128.319 155.195C128.38 154.83 130.962 120.471 134.056 78.8425C137.15 37.2137 139.753 2.44395 139.84 1.57685L140 0H70H0L0.159527 1.57685ZM64.1961 83.905C64.262 136.894 64.2431 139.427 63.7804 139.427C63.0598 139.427 33.6814 132.249 33.5001 132.028C33.3673 131.867 31.5002 108.463 31.4882 106.811C31.4844 106.276 31.9419 106.23 37.3099 106.23H43.1359L43.6609 113.284L44.1862 120.339L48.3519 121.374L52.5176 122.409V75.3067V28.204L58.3223 28.2937L64.127 28.3833L64.1961 83.905ZM114.174 30.9561C114.086 32.4622 113.864 35.6743 113.682 38.0934L113.351 42.492H100.417H87.4824V60.2523V78.0126H99.0918C105.477 78.0126 110.699 78.0501 110.696 78.0956C110.247 85.1197 106.609 131.895 106.502 132.026C106.319 132.248 76.9457 139.427 76.2205 139.427C75.7722 139.427 75.7364 138.902 75.7364 132.34V125.253L85.7751 122.796L95.8138 120.339L96.8196 107.226C97.373 100.014 97.8339 93.6277 97.844 93.0341L97.8625 91.9552H86.7995H75.7364V60.3077C75.7364 42.9013 75.8184 28.5602 75.9186 28.4387C76.0186 28.3169 84.703 28.2173 95.217 28.2173H114.333L114.174 30.9561Z" fill="#F7DF1E"/>
</svg>
