<svg width="157" height="50" viewBox="0 0 157 50" fill="none" xmlns="http://www.w3.org/2000/svg">
<path d="M0 12H5.24083V42H0V12ZM9.69484 12C12.4033 12 14.7763 12.4064 16.814 13.2205C18.881 14.0073 20.5846 15.0663 21.9235 16.3962C23.2917 17.7262 24.3119 19.245 24.9813 20.9553C25.6507 22.637 25.9861 24.3746 25.9861 26.1657C25.9861 28.6354 25.6941 30.7521 25.1127 32.5158C24.5592 34.2522 23.8451 35.7176 22.9716 36.9121C22.0981 38.0792 21.1087 39.0014 20.0018 39.6801C18.9243 40.3587 17.8761 40.8733 16.8573 41.2263C15.8385 41.5519 14.9063 41.7694 14.0622 41.8776C13.2181 41.9596 12.592 42 12.1853 42H7.03109V38.4179H10.4383C13.9895 38.4179 16.5526 37.3602 18.1249 35.2421C19.6971 33.1267 20.4826 30.0591 20.4826 26.0432C20.4826 24.7954 20.3219 23.5605 20.0018 22.3387C19.6818 21.1182 19.0557 20.0188 18.1249 19.0418C17.2221 18.0375 15.9838 17.2377 14.4116 16.6398C12.8393 16.0159 10.8017 15.7033 8.29728 15.7033H7.03109V12H9.69484ZM29.8756 12H35.2044L43.8511 30.5216V38.0518H42.4536L35.2044 21.3617V42H29.8756V12ZM54.2894 12H59.6183V42H54.2894V21.3617L47.0836 38.0518H45.6428V30.6023L54.2894 12ZM79.4497 26.2061C80.1191 26.2881 80.8318 26.4913 81.5893 26.817C82.3454 27.1426 83.0442 27.6038 83.6856 28.2003C84.3551 28.7982 84.9085 29.5303 85.3445 30.3991C85.782 31.2406 86 32.2175 86 33.3299C86 34.6859 85.782 35.8531 85.3445 36.83C84.9085 37.807 84.3551 38.6211 83.6856 39.2724C83.0442 39.8963 82.3314 40.3991 81.546 40.7782C80.7885 41.1312 80.0464 41.4034 79.3183 41.5936C78.6195 41.7825 77.9934 41.9049 77.44 41.9596C76.8865 41.987 76.5232 42 76.3485 42H71.2823V38.4179H76.0424C77.5853 38.4179 78.7942 37.9568 79.6677 37.0345C80.5411 36.111 80.9772 34.8761 80.9772 33.3299C80.9772 31.8645 80.5258 30.6297 79.6244 29.6254C78.7215 28.6211 77.3966 28.1196 75.6497 28.1196H71.2823V24.8214H73.3787C74.0187 24.8214 74.6742 24.8084 75.3436 24.781C76.0131 24.7537 76.6392 24.6052 77.2219 24.3343C77.8033 24.062 78.2701 23.6009 78.6195 22.9496C78.9982 22.2983 79.1869 21.3617 79.1869 20.1412C79.1869 19.6527 79.1142 19.1499 78.9689 18.6341C78.8235 18.0922 78.5314 17.6038 78.0954 17.17C77.658 16.7349 77.0319 16.3819 76.2171 16.111C75.4023 15.84 74.3248 15.7033 72.986 15.7033H71.2823V12H73.51C74.8783 12 76.2031 12.1485 77.4833 12.4468C78.7648 12.7464 79.8997 13.2205 80.8905 13.8718C81.88 14.5231 82.6668 15.3776 83.2482 16.4366C83.831 17.4683 84.1217 18.7031 84.1217 20.1412C84.1217 20.9827 83.9763 21.7551 83.6856 22.4611C83.3935 23.1398 83.0302 23.7364 82.5942 24.2522C82.1567 24.768 81.6466 25.2018 81.0652 25.5548C80.5118 25.8804 79.9737 26.098 79.4497 26.2061ZM64.2512 12H69.4921V42H64.2512V12Z" fill="white"/>
<path fill-rule="evenodd" clip-rule="evenodd" d="M129.274 0.103327C127.329 0.299039 124.524 0.991882 122.637 1.7433C122.096 1.95901 119.214 3.43329 118.729 3.74186C114.85 6.21326 111.726 9.63465 109.685 13.6432C109.322 14.356 108.972 15.0846 108.906 15.2617C108.842 15.4403 108.659 15.926 108.499 16.3417C107.006 20.2545 106.586 25.5302 107.43 29.7773C107.696 31.1116 107.792 31.4673 108.297 33.0244C108.607 33.983 109.543 36.1944 109.659 36.2458C109.705 36.2658 109.74 36.3329 109.74 36.3958C109.74 36.5072 110.8 38.4272 110.92 38.5315C110.955 38.5615 111.127 38.8043 111.305 39.0715C112.656 41.1115 115.496 44.0671 117.164 45.17C117.384 45.3157 117.759 45.5728 117.996 45.7414C118.234 45.91 118.502 46.0828 118.59 46.1257C118.679 46.1671 118.97 46.3428 119.237 46.5142C119.97 46.9871 122.754 48.3585 122.979 48.3585C123.026 48.3585 123.309 48.4514 123.607 48.5642C127.747 50.1314 133.139 50.4399 137.693 49.3699C141.851 48.3914 145.758 46.3614 148.701 43.65C148.968 43.4028 149.337 43.0614 149.521 42.8914C150.208 42.2543 151.46 40.8257 152.064 39.99C152.407 39.5143 152.728 39.0772 152.778 39.0186C153.01 38.7372 153.99 37.0686 153.99 36.9529C153.99 36.8815 154.03 36.8058 154.08 36.7858C154.188 36.7429 154.938 35.1815 155.316 34.213C155.558 33.5901 155.863 32.6401 156.321 31.0701C156.478 30.5287 156.766 28.9544 156.91 27.8416C157.031 26.9016 157.03 22.9974 156.907 22.1188C156.724 20.8074 156.467 19.3888 156.321 18.8903C155.883 17.3903 155.584 16.426 155.5 16.2346C155.448 16.1146 155.253 15.6531 155.064 15.2089C154.683 14.3017 154.181 13.2389 154.096 13.156C154.064 13.1275 153.981 12.9818 153.908 12.8332C153.837 12.6846 153.657 12.3689 153.51 12.1303C153.361 11.8932 153.16 11.5575 153.064 11.3846C152.967 11.2132 152.844 11.0175 152.791 10.9532C152.737 10.8875 152.347 10.3732 151.923 9.80893C150.988 8.56894 150.193 7.70181 148.794 6.40183C146.546 4.31185 143.227 2.34902 140.229 1.33474C138.273 0.673321 136.466 0.276167 134.579 0.0918833C133.279 -0.0352582 130.594 -0.0295285 129.274 0.103327ZM130.186 1.6533C129.966 1.8733 129.94 1.96043 130.03 2.19757C130.09 2.35329 130.139 2.50186 130.139 2.52757C130.139 2.55329 129.847 2.57472 129.49 2.57472C129.134 2.57472 128.843 2.53044 128.843 2.47615C128.843 2.36901 129.741 1.59759 130.081 1.4133C130.417 1.23045 130.474 1.36473 130.186 1.6533ZM133.916 1.45188L134.186 1.61615L133.916 1.55617C133.767 1.52474 133.583 1.49759 133.504 1.49616C133.427 1.49473 133.393 1.44616 133.43 1.38616C133.517 1.24474 133.593 1.25474 133.916 1.45188ZM129.006 1.71045C128.77 1.97045 128.566 1.98759 128.477 1.75616C128.382 1.50902 128.379 1.51188 128.762 1.47331C129.217 1.42903 129.24 1.45046 129.006 1.71045ZM136.56 1.79616C136.857 1.91616 137.246 2.09187 137.423 2.18615C137.601 2.28044 137.807 2.35757 137.881 2.35757C137.956 2.35757 138.017 2.40758 138.017 2.46615C138.017 2.53043 137.607 2.57472 137.004 2.57472H135.991L135.384 2.07472C135.051 1.80044 134.779 1.54187 134.779 1.50187C134.779 1.36901 136.003 1.57188 136.56 1.79616ZM135.021 2.28758C135.279 2.489 135.259 2.57472 134.957 2.57472C134.673 2.57472 134.411 2.3233 134.294 1.93759L134.214 1.67758L134.524 1.90901C134.694 2.03472 134.919 2.20615 135.021 2.28758ZM126.684 2.36187C126.684 2.51472 126.427 2.60044 126.126 2.54758L125.874 2.50329L126.144 2.38473C126.493 2.22902 126.684 2.22187 126.684 2.36187ZM139.474 2.49187C139.547 2.56758 139.463 2.58043 139.207 2.53329C139.001 2.49471 138.783 2.40902 138.721 2.34473C138.641 2.26045 138.717 2.24902 138.989 2.30473C139.196 2.34616 139.414 2.43187 139.474 2.49187ZM127.116 3.16756C127.252 3.33185 127.203 3.44901 126.767 3.99186C126.503 4.32043 125.807 4.62614 125.589 4.50899C125.479 4.45042 125.39 4.34612 125.39 4.27898C125.39 4.11327 125.826 3.65471 125.982 3.65471C126.049 3.65471 126.244 3.50899 126.414 3.33042C126.762 2.96756 126.92 2.93185 127.116 3.16756ZM131.15 3.22757L131.649 3.449L131.644 5.46754L131.64 7.48752L131.414 7.0561C131.291 6.81753 131.179 6.61039 131.166 6.59467C131.089 6.50467 130.799 6.72611 130.694 6.95325C130.546 7.27896 130.246 7.30325 130.246 6.9904C130.246 6.78611 130.09 6.54468 129.514 5.86612C129.271 5.57898 128.56 5.16612 128.309 5.16612C128.063 5.16612 127.98 5.37184 127.98 5.97755C127.98 6.37755 127.927 6.4904 127.616 6.7504C127.353 6.9704 127.2 7.2304 127.072 7.68039C126.819 8.56038 126.617 8.72894 125.826 8.72894C125.263 8.72894 125.147 8.6918 124.909 8.43323C124.757 8.27037 124.634 8.10751 124.634 8.0718C124.634 8.03608 124.763 7.76753 124.92 7.4761C125.904 5.65326 126.136 5.38183 126.703 5.38183C127.156 5.38183 127.22 5.23613 127.01 4.68471C126.917 4.44042 126.952 4.35184 127.28 4.00184L127.657 3.60043L127.63 4.19042C127.607 4.6747 127.634 4.78756 127.787 4.81898C127.89 4.83898 128.08 4.75612 128.213 4.63326C128.522 4.3447 128.552 4.34898 128.914 4.73469C129.241 5.0804 129.673 5.16184 129.776 4.89613C129.884 4.61327 129.726 4.26184 129.279 3.78898C128.62 3.0947 128.673 3.00615 129.747 3.00615C130.423 3.00615 130.776 3.06186 131.15 3.22757ZM136.197 3.41185C137.226 4.49756 138.281 6.01755 139.097 7.58753C139.529 8.41752 139.594 8.61465 139.46 8.66608C139.369 8.70036 137.767 8.72894 135.901 8.72894H132.51L132.296 8.37895C132.101 8.06038 132.081 7.83466 132.084 5.97611C132.087 3.84471 132.141 3.68757 132.456 4.90899C132.7 5.86184 132.919 6.28041 133.281 6.48898C133.927 6.8604 134.077 6.67182 134.187 5.34469C134.234 4.77755 134.346 4.24613 134.469 4.00613C134.58 3.78757 134.671 3.47329 134.671 3.30757C134.671 3.01615 134.689 3.00615 135.243 3.00615C135.763 3.00615 135.849 3.04329 136.197 3.41185ZM139.464 3.23043C139.76 3.40614 139.859 3.54471 139.904 3.85185C139.937 4.07042 140.016 4.46755 140.079 4.73469C140.141 5.00183 140.234 5.53612 140.284 5.92183C140.416 6.93468 140.67 7.87894 140.839 7.98609C141.226 8.2318 141.754 7.99467 141.813 7.55039C141.871 7.11468 142.099 7.16895 142.664 7.75466C143.051 8.15322 143.273 8.30181 143.443 8.27753C143.646 8.24895 143.681 8.17895 143.67 7.83038C143.66 7.50467 143.564 7.31897 143.229 6.96611C142.759 6.47326 142.194 5.45755 142.247 5.20041C142.271 5.07612 142.381 5.11899 142.711 5.38041C143.843 6.2804 145.678 8.03038 145.68 8.20895C145.68 8.24895 145.55 8.38465 145.39 8.50893C145.116 8.72608 144.987 8.73608 142.734 8.72465C141.433 8.71893 140.303 8.68894 140.223 8.65751C140.143 8.62751 139.851 8.15751 139.576 7.61323C139.301 7.06895 139.007 6.54753 138.924 6.45325C138.84 6.35896 138.773 6.24754 138.773 6.20469C138.773 6.05469 137.877 4.78183 137.196 3.9647C136.816 3.50899 136.506 3.10756 136.506 3.07185C136.506 3.03614 137.086 3.00615 137.794 3.00615C138.907 3.00615 139.136 3.03758 139.464 3.23043ZM143.261 5.09183C143.421 5.38897 143.413 5.38612 142.876 4.98469C142.376 4.61184 142.344 4.56184 142.516 4.43612C142.679 4.31755 142.734 4.33327 142.901 4.54184C143.009 4.67756 143.17 4.92469 143.261 5.09183ZM119.237 5.27469C119.11 5.45183 118.974 5.59897 118.933 5.6004C118.893 5.60183 118.717 5.79612 118.543 6.03183C118.367 6.26897 118.17 6.46181 118.103 6.46181C117.89 6.46181 117.506 6.95468 117.39 7.37753C117.327 7.60181 117.094 7.98181 116.87 8.22181C116.494 8.62466 116.41 8.66323 115.792 8.70751C115.422 8.73466 115.073 8.70893 115.014 8.65036C114.944 8.58036 115.123 8.33752 115.534 7.94467C116.559 6.96325 116.869 6.69896 117.889 5.93326C119.312 4.8647 119.644 4.70184 119.237 5.27469ZM125.542 5.62468C125.5 5.69897 125.254 6.10469 124.996 6.52468C124.737 6.9461 124.526 7.34609 124.526 7.41609C124.526 7.48466 124.483 7.54182 124.43 7.54182C124.196 7.54182 124.117 6.28468 124.326 5.88755C124.503 5.55326 124.627 5.49325 125.153 5.49182C125.494 5.4904 125.597 5.52611 125.542 5.62468ZM144.823 6.35897C145.416 6.8004 145.801 7.22182 145.927 7.56896C146.05 7.90181 145.88 7.77609 144.95 6.84038C144.449 6.33467 144.084 5.92183 144.138 5.92183C144.193 5.92183 144.501 6.11897 144.823 6.35897ZM115.676 9.1375C115.676 9.31322 115.013 9.60465 114.472 9.66894L113.91 9.73608L114.153 9.39465C114.379 9.07751 114.44 9.05323 115.036 9.05323C115.389 9.05323 115.676 9.09179 115.676 9.1375ZM126.144 9.20893C126.144 9.29465 126.1 9.3918 126.046 9.42609C125.99 9.46037 125.914 9.63321 125.874 9.81178C125.783 10.2289 125.513 10.3775 125.167 10.2004C124.963 10.0975 124.907 9.98749 124.92 9.71892C124.929 9.5275 124.996 9.30036 125.069 9.21179C125.247 8.99608 126.144 8.99322 126.144 9.20893ZM140.054 9.61037C140.181 9.91608 140.269 10.1846 140.247 10.2061C140.226 10.2261 140.043 10.0732 139.841 9.86608C139.406 9.41751 139.241 9.39322 139.079 9.75035C138.947 10.0389 139.09 10.5503 139.404 10.9203C139.496 11.0275 139.674 11.4375 139.803 11.8332C140.074 12.6703 140.253 12.836 140.656 12.6189C140.827 12.5275 140.971 12.5089 141.03 12.5703C141.081 12.626 141.221 13.0589 141.339 13.5346C141.564 14.4417 141.537 14.5517 141.093 14.5617C140.824 14.5689 140.574 14.7546 140.404 15.0746C140.296 15.2789 140.32 15.446 140.559 16.1003C140.741 16.6031 140.849 17.1317 140.86 17.5831L140.877 18.286L136.479 18.3146L132.081 18.3417V15.9274V13.5117L132.431 13.4117C132.87 13.286 132.943 12.9475 132.619 12.536C132.221 12.0303 132.097 11.5875 132.097 10.6632C132.097 9.86465 132.126 9.74035 132.386 9.41464L132.674 9.05323H136.249H139.823L140.054 9.61037ZM143.251 9.31751C142.98 9.48322 142.729 9.55892 142.577 9.52178C142.294 9.45178 142.301 9.42464 142.289 10.6703C142.279 11.7575 142.171 11.8418 141.531 11.2689C141.299 11.0603 141.073 10.8889 141.031 10.8889C140.99 10.8889 140.929 10.8046 140.897 10.7004C140.864 10.5961 140.713 10.1832 140.561 9.78179L140.287 9.05323H141.984L143.683 9.05465L143.251 9.31751ZM144.847 9.17323C144.761 9.25894 144.639 9.2618 144.421 9.1818C144.119 9.0718 144.12 9.07037 144.541 9.0618C144.854 9.05608 144.936 9.08466 144.847 9.17323ZM150.65 10.5918C150.886 10.8446 151.11 11.166 151.147 11.3075C151.227 11.6146 150.923 12.646 150.696 12.8346C150.608 12.9075 150.536 13.086 150.536 13.2303C150.536 13.6103 150.863 14.5703 151.094 14.8717C151.203 15.0132 151.291 15.2703 151.291 15.4417C151.291 16.0846 151.924 15.9546 152.083 15.2789C152.176 14.8846 152.481 14.7332 152.644 14.9989C152.724 15.1274 152.488 16.4946 152.356 16.6717C152.297 16.7517 152.053 16.7503 151.538 16.6674L150.806 16.5474L150.51 15.7074C150.291 15.0846 150.243 14.8146 150.321 14.666C150.461 14.4046 150.458 13.6303 150.317 13.366C150.253 13.246 150.091 13.156 149.938 13.156C149.608 13.156 149.283 12.8403 149.011 12.2546C148.897 12.0089 148.743 11.7189 148.671 11.6118C148.561 11.4489 148.576 11.3903 148.748 11.2603C148.864 11.1746 149.047 11.1046 149.157 11.1046C149.273 11.1046 149.401 10.9832 149.467 10.8089C149.61 10.4332 149.878 10.1332 150.071 10.1332C150.154 10.1332 150.414 10.3389 150.65 10.5918ZM130.99 11.0618C131.149 11.2432 131.307 11.3232 131.441 11.2875C131.596 11.2475 131.649 11.2889 131.649 11.4503C131.649 11.7018 131.186 12.1046 130.484 12.4646C130.407 12.5032 130.286 12.4632 130.214 12.3732C130.143 12.2832 129.963 12.1803 129.814 12.1446C129.076 11.9618 128.814 11.3203 129.48 11.3203C129.656 11.3203 129.863 11.2575 129.942 11.1789C130.129 10.9932 130.486 10.7889 130.631 10.7846C130.694 10.7832 130.856 10.9075 130.99 11.0618ZM111.742 13.4618C111.582 13.9175 111.407 14.3746 111.352 14.4775C111.296 14.5803 111.252 15.1003 111.252 15.6317C111.252 16.1646 111.203 16.6289 111.143 16.666C111.085 16.7031 111.036 17.036 111.036 17.406C111.036 17.7874 110.979 18.1374 110.906 18.2103C110.725 18.3917 109.426 18.3831 109.356 18.1988C109.305 18.0674 109.49 17.5103 110.135 15.856C110.407 15.1546 111.602 12.8003 111.826 12.5232C112.066 12.2275 112.029 12.6346 111.742 13.4618ZM147.588 12.8418C147.874 13.0832 148.241 13.3946 148.404 13.5332C148.568 13.6718 148.701 13.8775 148.701 13.9903C148.701 14.2317 149.183 14.7232 149.553 14.8589C149.74 14.9289 149.878 15.1417 150.064 15.6474C150.38 16.5174 150.38 16.536 150.04 16.9031C149.884 17.0703 149.678 17.3717 149.58 17.576C149.441 17.8645 149.284 17.9874 148.863 18.1346C148.567 18.2374 148.218 18.3274 148.09 18.3317C147.798 18.3417 147.031 17.6531 146.783 17.1574C146.668 16.9274 146.46 16.7303 146.238 16.6417C145.898 16.5046 145.866 16.5132 145.59 16.8089C145.234 17.1903 144.791 17.4217 144.226 17.5246C143.967 17.5717 143.634 17.7488 143.389 17.9717C143.164 18.1731 142.936 18.3403 142.88 18.3403C142.626 18.3403 142.661 18.076 142.956 17.7631C143.131 17.576 143.406 17.1974 143.563 16.9217C143.807 16.4974 143.833 16.3774 143.733 16.116C143.617 15.8103 143.761 15.316 143.966 15.316C144.013 15.316 144.083 15.1489 144.121 14.9432C144.193 14.5575 144.476 14.2989 144.956 14.1789C145.167 14.1246 145.319 14.1917 145.643 14.4817C145.87 14.686 146.227 14.9103 146.436 14.9803C146.907 15.1389 147.093 15.2903 147.298 15.686C147.541 16.1531 147.814 16.2831 148.006 16.0246C148.36 15.5474 148.091 14.2803 147.584 14.0375C147.414 13.956 147.187 13.8017 147.078 13.6917C146.97 13.5832 146.757 13.4132 146.604 13.3132C146.128 13.0018 146.313 12.4146 146.887 12.4046C146.987 12.4018 147.303 12.5989 147.588 12.8418ZM131.01 13.1117C131.207 13.3146 131.431 13.4803 131.509 13.4803C131.62 13.4803 131.649 13.9846 131.649 15.9117V18.3431L128.493 18.3146L125.336 18.286L125.337 17.6817C125.34 16.8789 125.656 16.4203 126.577 15.886C126.963 15.6617 127.576 15.2032 127.94 14.8674C128.304 14.5303 128.766 14.1718 128.966 14.0689C129.56 13.7632 129.842 13.4975 130.04 13.0532C130.267 12.5475 130.476 12.5589 131.01 13.1117ZM142.451 13.3803C142.826 13.646 142.847 13.866 142.531 14.2032C142.176 14.5803 141.941 14.526 141.861 14.0474C141.824 13.8246 141.764 13.5332 141.727 13.3989C141.673 13.2003 141.704 13.156 141.9 13.156C142.031 13.156 142.28 13.2575 142.451 13.3803ZM110.643 19.176C110.51 19.9088 110.536 21.0145 110.69 21.1688C110.932 21.4117 111.127 21.0259 111.246 20.0702C111.307 19.5674 111.36 19.106 111.36 19.0445C111.362 18.9831 111.406 18.8631 111.46 18.7788C111.542 18.6503 111.587 18.6474 111.729 18.7645C111.942 18.9417 111.943 19.3488 111.737 20.4274C111.493 21.7031 111.523 22.4559 111.845 23.0902C112.3 23.9916 112.369 23.9545 110.217 23.9545H108.322L108.393 22.9559C108.433 22.4059 108.555 21.4959 108.663 20.9317C108.772 20.3674 108.893 19.7117 108.932 19.476C109.06 18.7103 109.119 18.6631 109.972 18.6631H110.736L110.643 19.176ZM118.937 18.9331C119.342 19.2088 120.05 19.3031 120.12 19.0917C120.18 18.9131 121.089 18.636 121.212 18.7588C121.28 18.8288 121.274 19.2145 121.197 19.8717C121.132 20.4245 121.044 21.5702 121.006 22.4159L120.934 23.9545H117.987C115.064 23.9545 115.039 23.9531 114.873 23.7145C114.64 23.3817 114.662 23.1645 114.974 22.7031C115.17 22.4145 115.244 22.1617 115.244 21.7831C115.244 20.6817 116.282 19.1831 117.139 19.0445C117.373 19.006 117.686 18.9074 117.834 18.8231C118.224 18.6017 118.487 18.6274 118.937 18.9331ZM122.222 19.126C122.314 19.306 122.483 19.5517 122.594 19.6731C122.744 19.8331 122.799 20.0531 122.799 20.4945C122.799 21.5588 123.403 22.2574 123.814 21.6688C123.934 21.4988 123.986 21.1817 123.986 20.6331V19.8417L124.599 19.2531L125.212 18.6631H128.43H131.649V21.3088V23.9545H126.507H121.366L121.424 22.1459C121.497 19.9331 121.674 18.6531 121.897 18.7388C121.983 18.7717 122.127 18.9445 122.222 19.126ZM142.213 18.7603C142.323 18.8317 142.24 18.926 141.883 19.1345C141.591 19.306 141.333 19.5645 141.223 19.796C141.11 20.0345 140.966 20.176 140.836 20.176C140.573 20.176 140.499 20.3774 140.499 21.0888C140.499 21.4031 140.423 21.8731 140.329 22.1331C140.206 22.4702 140.177 22.7959 140.224 23.2802L140.289 23.9545H136.186H132.081V21.3088V18.6631L137.073 18.6646C139.817 18.666 142.13 18.7088 142.213 18.7603ZM112.166 25.2231C112.297 26.983 112.565 29.1887 112.717 29.7816C112.802 30.1059 112.87 30.433 112.87 30.5101C112.87 30.6187 112.442 30.6501 110.929 30.6501C109.005 30.6501 108.989 30.6473 108.937 30.4058C108.576 28.7202 108.429 27.6416 108.372 26.2616C108.335 25.363 108.335 24.5488 108.372 24.4531C108.429 24.3016 108.683 24.2788 110.267 24.2788H112.095L112.166 25.2231ZM117.294 24.4173C117.294 24.6945 116.204 25.1773 115.816 25.0716C115.572 25.0059 115.212 24.5274 115.299 24.3859C115.403 24.2174 117.294 24.2473 117.294 24.4173ZM121.003 26.2945C121.043 27.403 121.12 28.6302 121.176 29.0216C121.23 29.4116 121.297 29.9387 121.324 30.1901L121.376 30.6501H120.777C120.334 30.6501 120.142 30.6001 120.036 30.4601C119.827 30.1859 119.852 30.0187 120.154 29.6587C120.354 29.4216 120.424 29.2116 120.424 28.8601C120.424 28.3702 120.392 28.3387 119.91 28.3773C119.217 28.4344 118.546 27.8859 118.119 26.913C117.937 26.4988 117.936 26.4345 118.094 25.9645C118.189 25.6859 118.266 25.3559 118.266 25.2316C118.266 25.1059 118.424 24.8402 118.617 24.6416C118.964 24.2845 118.979 24.2802 119.949 24.2802L120.93 24.2788L121.003 26.2945ZM131.649 27.4645V30.6501H130.244H128.839L128.712 30.353C128.642 30.1887 128.582 30.0487 128.579 30.0387C128.567 30.0016 126.064 29.6859 125.767 29.6844C125.589 29.683 125.189 29.6516 124.877 29.6159C124.354 29.5544 124.264 29.5787 123.736 29.9301C123.419 30.1401 123.097 30.3887 123.02 30.4801C122.927 30.5944 122.697 30.6501 122.32 30.6501H121.76L121.619 29.543C121.542 28.9344 121.453 27.5002 121.424 26.3573L121.37 24.2788H126.51H131.649V27.4645ZM140.067 24.4373C140.067 24.5245 139.986 24.7673 139.886 24.9773C139.717 25.3302 139.717 25.3859 139.879 25.7259C139.974 25.9273 140.239 26.2273 140.466 26.393C140.691 26.5588 141.231 27.0373 141.664 27.4573L142.451 28.2202L142.387 29.1916C142.351 29.7259 142.3 30.273 142.271 30.4058L142.221 30.6501H137.151H132.081V27.4645V24.2788H136.074C139.51 24.2788 140.067 24.3002 140.067 24.4373ZM113.332 25.9159C113.556 26.1431 113.872 26.3587 114.033 26.3973C114.749 26.5673 116.44 27.3373 116.679 27.6016C116.772 27.7045 116.974 28.1302 117.129 28.5473C117.426 29.3487 117.689 29.6787 118.482 30.2473L118.967 30.5959L116.169 30.6244C114.274 30.6444 113.347 30.6159 113.3 30.5387C113.115 30.2373 112.709 27.5302 112.59 25.7902C112.535 24.9902 112.537 24.9831 112.729 25.2416C112.836 25.3859 113.107 25.6888 113.332 25.9159ZM148.756 28.8416C149.087 29.0144 149.13 29.1359 149.131 29.9201L149.133 30.6501H145.893H142.653L142.724 29.7587C142.763 29.2687 142.814 28.8459 142.839 28.8173C142.863 28.7902 142.977 28.8273 143.093 28.8987C143.339 29.053 143.866 29.0716 144.011 28.9316C144.177 28.7759 144.436 28.7559 146.543 28.743C147.74 28.7344 148.626 28.7744 148.756 28.8416ZM113.032 31.3244C113.069 31.4587 113.14 31.6644 113.189 31.783C113.239 31.9016 113.384 32.3401 113.514 32.7558C113.839 33.8001 114.223 34.7529 114.756 35.8329C115.182 36.6958 116.174 38.4129 116.316 38.5315C116.35 38.5615 116.52 38.8043 116.692 39.0715C116.863 39.3386 117.19 39.7829 117.419 40.0586C117.647 40.3343 117.834 40.59 117.834 40.6258C117.834 40.6615 117.042 40.6914 116.073 40.6914C114.089 40.6914 114.399 40.8129 113.452 39.6643C113.027 39.15 111.575 37.0715 111.575 36.9772C111.575 36.9529 111.407 36.6372 111.205 36.2758C110.886 35.7129 110.5 34.8929 109.906 33.5115C109.673 32.9701 109.333 31.9158 109.252 31.4858L109.176 31.0816H111.07C112.942 31.0816 112.965 31.0844 113.032 31.3244ZM119.169 31.3316C119.307 31.8816 119.632 32.0958 120.439 32.1701C120.857 32.2073 121.262 32.3058 121.343 32.3887C121.57 32.6215 121.359 33.4758 120.904 34.1615C120.522 34.7372 120.514 34.7715 120.477 35.9844C120.442 37.1786 120.449 37.2272 120.69 37.3858C120.829 37.4758 121.056 37.5658 121.196 37.5844C121.573 37.6372 121.696 37.7444 121.772 38.0915C121.812 38.2743 122.082 38.6286 122.417 38.9415C122.734 39.2372 123.146 39.7515 123.332 40.0857L123.669 40.6914H121.047H118.426L117.887 39.98C117.592 39.59 117.274 39.1872 117.183 39.0858C116.816 38.6786 115.564 36.5672 115 35.4001C114.402 34.1644 114.139 33.4972 113.725 32.1615C113.606 31.7758 113.48 31.3744 113.446 31.2701C113.389 31.093 113.569 31.0816 116.246 31.0816H119.106L119.169 31.3316ZM121.443 31.3644C121.483 31.5201 121.486 31.6758 121.452 31.7101C121.416 31.7458 121.36 31.6673 121.326 31.5358C121.277 31.3487 121.183 31.2973 120.897 31.2973C120.697 31.2973 120.533 31.2487 120.533 31.1887C120.533 31.1301 120.722 31.0816 120.953 31.0816C121.316 31.0816 121.383 31.1201 121.443 31.3644ZM122.583 31.1559C122.583 31.2916 122.116 31.7287 121.972 31.7287C121.884 31.7287 121.827 31.603 121.827 31.4058C121.827 31.1073 121.857 31.0816 122.206 31.0816C122.413 31.0816 122.583 31.1144 122.583 31.1559ZM131.649 31.5744C131.649 32.0358 131.633 32.063 131.406 31.9944C131.273 31.9544 131.041 31.8558 130.894 31.7744C130.746 31.693 130.441 31.5444 130.219 31.4458C129.997 31.3458 129.814 31.223 129.814 31.173C129.814 31.123 130.227 31.0816 130.731 31.0816H131.649V31.5744ZM142.116 31.2701C142.113 31.5701 141.813 33.3244 141.623 34.1558C141.206 35.9815 140.65 37.7743 140.02 39.3258C139.414 40.8157 139.563 40.6914 138.39 40.6914H137.369V40.3886C137.369 40.2215 137.297 39.9915 137.211 39.8757C136.89 39.4515 137.001 39.1229 137.59 38.7458C138.111 38.41 138.449 37.9701 138.449 37.6229C138.449 37.5329 138.599 37.2901 138.78 37.0815C139.143 36.6686 139.139 36.5329 138.747 35.8687C138.5 35.4487 137.857 35.0772 137.377 35.0772C137.163 35.0772 137.014 35.0029 136.937 34.8601C136.861 34.7172 136.711 34.6444 136.494 34.6444C136.136 34.6444 135.824 34.5058 135.494 34.1987C135.376 34.0872 135.151 33.9972 134.996 33.9972C134.627 33.9972 134.209 33.6801 133.323 32.7258C132.813 32.1773 132.52 31.9458 132.339 31.9458C132.11 31.9458 132.081 31.8973 132.081 31.513V31.0816H137.1C141.807 31.0816 142.117 31.093 142.116 31.2701ZM149.223 31.4973C149.291 31.7258 149.488 32.1758 149.66 32.4987L149.973 33.083L149.567 34.073C148.708 36.1672 147.494 38.24 146.087 40.0172L145.553 40.6914H142.756C141.219 40.6914 139.96 40.6529 139.96 40.6057C139.96 40.5586 140.157 40.0372 140.399 39.4458C141.033 37.8915 141.636 35.9887 141.897 34.7087C142.201 33.2244 142.329 32.5601 142.441 31.8644L142.57 31.0816H145.834H149.098L149.223 31.4973ZM150.054 34.4015C150.013 34.6244 149.883 35.0258 149.764 35.2929C149.461 35.9744 149.48 36.5386 149.826 37.1458C150.216 37.8301 150.267 38.4915 150.026 39.6658L149.824 40.6372L148.021 40.6672C146.103 40.6986 145.943 40.6515 146.437 40.2043C146.556 40.0958 146.823 39.76 147.028 39.4586C147.234 39.1572 147.538 38.7158 147.706 38.4786C148.404 37.4801 149.888 34.6401 149.888 34.3001C149.888 34.1458 149.983 33.9972 150.08 33.9972C150.107 33.9972 150.096 34.1787 150.054 34.4015ZM119.472 42.34C120.592 43.4543 121.192 43.9971 121.852 44.4929C121.987 44.5943 122.243 44.7943 122.422 44.9357C122.6 45.0786 123.207 45.5057 123.77 45.8857L124.796 46.5771L123.627 46.6071C122.552 46.6357 122.41 46.6157 121.846 46.35C119.653 45.3171 117.243 43.6243 115.369 41.7986L114.676 41.1243H116.462H118.249L119.472 42.34ZM124.674 41.8672C125.053 42.6214 125.326 43.0829 126.026 44.1443C126.3 44.5628 126.417 44.8629 126.422 45.1643C126.426 45.3986 126.486 45.61 126.557 45.6343C126.627 45.6571 126.684 45.7257 126.684 45.7857C126.684 45.8457 126.782 46.0185 126.9 46.17C127.019 46.32 127.116 46.4857 127.116 46.5371C127.116 46.5885 126.792 46.63 126.393 46.63C125.817 46.63 125.593 46.58 125.287 46.3785C125.076 46.24 124.54 45.8885 124.094 45.6C122.47 44.5428 121.246 43.5429 119.703 42.0143L118.803 41.1243H121.552H124.302L124.674 41.8672ZM125.684 41.2115C125.759 41.2586 125.887 41.6886 125.97 42.1686C126.054 42.6472 126.222 43.2643 126.343 43.54C126.464 43.8143 126.524 44.0386 126.476 44.0386C126.376 44.0386 125.797 43.1072 125.15 41.9072L124.729 41.1243L125.14 41.1257C125.366 41.1257 125.612 41.1657 125.684 41.2115ZM139.204 41.1715C139.204 41.2229 139.08 41.4486 138.28 42.8514C137.737 43.8043 136.604 45.3771 135.889 46.1714L135.476 46.63H134.326H133.176L133.264 46.3343C133.419 45.8171 133.49 45.7228 134.06 45.2757C134.571 44.8728 134.623 44.7914 134.699 44.25C134.81 43.4657 135.013 43.2214 136.086 42.5814C136.897 42.0972 137.007 41.9929 137.137 41.5814L137.281 41.1243H138.243C138.771 41.1243 139.204 41.1457 139.204 41.1715ZM144.757 41.5672C144.183 42.1643 142.361 43.8129 141.907 44.1471C141.704 44.2957 141.317 44.5886 141.046 44.7985C140.776 45.0071 140.286 45.3514 139.96 45.5614C139.633 45.7714 139.127 46.0971 138.834 46.2871C138.324 46.6171 138.261 46.63 137.171 46.63C136.107 46.63 136.05 46.62 136.197 46.4414C136.52 46.0557 136.999 45.4571 137.207 45.1814C137.326 45.0257 137.471 44.8386 137.531 44.7657C137.926 44.2828 138.883 42.69 139.477 41.5286L139.684 41.1243H142.434H145.184L144.757 41.5672ZM149.12 41.3043C148.996 41.4543 148.641 41.7986 147.687 42.6929C147.621 42.7543 147.253 43.0572 146.867 43.3657C146.481 43.6729 146.091 43.9871 146.003 44.0628C145.913 44.1386 145.573 44.37 145.247 44.5757C144.921 44.7814 144.63 44.9828 144.6 45.0229C144.57 45.0629 143.883 45.4428 143.073 45.8671L141.6 46.6385L140.376 46.6071L139.15 46.5771L139.96 46.0457C141.546 45.0043 142.947 43.8686 144.33 42.5057L145.733 41.1243H147.5C149.137 41.1243 149.257 41.1372 149.12 41.3043ZM126.037 47.2828C126.363 47.4628 126.862 47.7128 127.143 47.8371C127.662 48.0657 127.864 48.3399 127.413 48.2014C127.28 48.1599 126.854 48.0557 126.469 47.9699C125.429 47.7371 123.663 47.1585 123.663 47.05C123.663 46.9971 124.063 46.9542 124.553 46.9542C125.343 46.9542 125.51 46.9914 126.037 47.2828ZM127.323 47.1971C127.446 47.5228 127.41 47.54 127.019 47.3371C126.614 47.1285 126.586 46.9542 126.957 46.9542C127.142 46.9542 127.262 47.0342 127.323 47.1971ZM134.931 47.0471C134.963 47.0971 134.734 47.3614 134.424 47.6314C133.361 48.5599 133.334 48.5742 132.68 48.5742H132.071L132.103 47.8457C132.134 47.1343 132.141 47.1171 132.459 47.0485C132.953 46.9443 134.867 46.9428 134.931 47.0471ZM137.369 47.0442C137.369 47.1685 134.911 48.3371 134.463 48.4271C134.109 48.4985 134.123 48.4757 134.897 47.7314L135.696 46.9614L136.533 46.9585C136.993 46.9557 137.369 46.9942 137.369 47.0442ZM140.283 47.0557C140.283 47.2271 136.363 48.36 136.23 48.2271C136.207 48.2028 136.587 47.9742 137.076 47.7171C137.563 47.4585 138.059 47.1828 138.176 47.1014C138.421 46.9328 140.283 46.8914 140.283 47.0557Z" fill="white"/>
</svg>
