<svg width="67" height="65" viewBox="0 0 67 65" fill="none" xmlns="http://www.w3.org/2000/svg">
<path d="M0 41.8217H4.08298V65H0V41.8217ZM7.55296 41.8217C9.66304 41.8217 11.5118 42.1357 13.0993 42.7647C14.7096 43.3726 16.0368 44.1908 17.0799 45.2183C18.1458 46.2458 18.9407 47.4193 19.4622 48.7407C19.9837 50.0399 20.245 51.3825 20.245 52.7663C20.245 54.6744 20.0175 56.3098 19.5645 57.6724C19.1334 59.014 18.577 60.1462 17.8965 61.069C17.216 61.9708 16.4451 62.6833 15.5828 63.2076C14.7434 63.7319 13.9268 64.1295 13.133 64.4022C12.3393 64.6538 11.6131 64.8219 10.9554 64.9054C10.2978 64.9688 9.81002 65 9.49319 65H5.47771V62.2324H8.13219C10.8988 62.2324 12.8957 61.4152 14.1206 59.7788C15.3455 58.1444 15.9573 55.7744 15.9573 52.6717C15.9573 51.7075 15.8321 50.7535 15.5828 49.8095C15.3335 48.8665 14.8457 48.0171 14.1206 47.2623C13.4172 46.4864 12.4525 45.8684 11.2276 45.4065C10.0027 44.9244 8.41528 44.6829 6.46416 44.6829H5.47771V41.8217H7.55296ZM23.2751 41.8217H27.4267L34.1631 56.1317V61.9496H33.0743L27.4267 49.0547V65H23.2751V41.8217ZM42.2953 41.8217H46.4468V65H42.2953V49.0547L36.6814 61.9496H35.5589V56.1941L42.2953 41.8217ZM61.8968 52.7975C62.4184 52.8609 62.9736 53.0179 63.5638 53.2695C64.1528 53.5211 64.6972 53.8773 65.197 54.3383C65.7185 54.8002 66.1496 55.3658 66.4893 56.037C66.8301 56.6872 67 57.442 67 58.3014C67 59.3491 66.8301 60.2508 66.4893 61.0056C66.1496 61.7604 65.7185 62.3894 65.197 62.8926C64.6972 63.3747 64.1419 63.7631 63.53 64.056C62.9399 64.3287 62.3617 64.5391 61.7945 64.686C61.2501 64.8319 60.7623 64.9265 60.3311 64.9688C59.9 64.9899 59.6169 65 59.4808 65H55.5339V62.2324H59.2423C60.4444 62.2324 61.3862 61.8762 62.0667 61.1636C62.7472 60.4501 63.0869 59.496 63.0869 58.3014C63.0869 57.1692 62.7352 56.2152 62.0329 55.4393C61.3296 54.6633 60.2974 54.2759 58.9364 54.2759H55.5339V51.7277H57.1671C57.6658 51.7277 58.1764 51.7176 58.6979 51.6965C59.2195 51.6753 59.7073 51.5606 60.1613 51.3513C60.6142 51.1409 60.9779 50.7847 61.2501 50.2815C61.5451 49.7783 61.6921 49.0547 61.6921 48.1117C61.6921 47.7343 61.6355 47.3458 61.5223 46.9473C61.409 46.5286 61.1815 46.1512 60.8418 45.8161C60.501 45.48 60.0132 45.2072 59.3784 44.9979C58.7437 44.7886 57.9042 44.6829 56.8612 44.6829H55.5339V41.8217H57.2695C58.3354 41.8217 59.3675 41.9364 60.3649 42.1669C61.3633 42.3984 62.2474 42.7647 63.0194 43.2679C63.7902 43.7711 64.4032 44.4313 64.8562 45.2495C65.3102 46.0466 65.5367 47.0006 65.5367 48.1117C65.5367 48.7618 65.4234 49.3586 65.197 49.9041C64.9694 50.4284 64.6863 50.8893 64.3466 51.2879C64.0058 51.6864 63.6084 52.0215 63.1555 52.2943C62.7243 52.5459 62.3051 52.7139 61.8968 52.7975ZM50.0562 41.8217H54.1392V65H50.0562V41.8217Z" fill="white"/>
<path fill-rule="evenodd" clip-rule="evenodd" d="M30.1534 0.0718485C28.6636 0.207937 26.5163 0.689704 25.0713 1.2122C24.6568 1.3622 22.4504 2.38733 22.0785 2.60189C19.1087 4.32038 16.7164 6.69944 15.1532 9.48677C14.8754 9.98245 14.6074 10.489 14.5571 10.6122C14.5079 10.7364 14.3678 11.0741 14.2453 11.3632C13.1022 14.084 12.7806 17.7524 13.4271 20.7056C13.6306 21.6334 13.7039 21.8807 14.0911 22.9635C14.3285 23.63 15.0449 25.1677 15.1335 25.2035C15.1686 25.2174 15.1959 25.2641 15.1959 25.3078C15.1959 25.3853 16.0076 26.7203 16.0994 26.7928C16.1257 26.8137 16.2581 26.9826 16.3937 27.1683C17.4285 28.5868 19.6031 30.642 20.8807 31.4089C21.0492 31.5102 21.3358 31.689 21.5174 31.8062C21.7 31.9234 21.9046 32.0436 21.9724 32.0734C22.0402 32.1022 22.2634 32.2244 22.4679 32.3436C23.0291 32.6724 25.161 33.626 25.3328 33.626C25.3689 33.626 25.5855 33.6906 25.8141 33.7691C28.9841 34.8588 33.1124 35.0733 36.5996 34.3293C39.7839 33.6489 42.7756 32.2373 45.0289 30.352C45.2335 30.1801 45.5157 29.9427 45.6568 29.8245C46.183 29.3815 47.1412 28.3881 47.6039 27.807C47.8664 27.4762 48.1126 27.1723 48.1509 27.1316C48.3281 26.9359 49.0785 25.7756 49.0785 25.6952C49.0785 25.6455 49.1091 25.5929 49.1474 25.579C49.2305 25.5492 49.8048 24.4634 50.0936 23.7899C50.2795 23.3568 50.5125 22.6963 50.8636 21.6046C50.984 21.2281 51.2038 20.1334 51.3143 19.3596C51.4073 18.706 51.4062 15.9912 51.3121 15.3803C51.1721 14.4684 50.9752 13.482 50.8636 13.1353C50.5278 12.0923 50.2992 11.4218 50.2347 11.2887C50.1953 11.2052 50.0454 10.8844 49.901 10.5755C49.609 9.94469 49.225 9.20565 49.1594 9.14803C49.1353 9.12817 49.0719 9.02685 49.0161 8.92354C48.9614 8.82023 48.8236 8.6007 48.7109 8.43481C48.5972 8.26991 48.4429 8.03648 48.3696 7.91628C48.2952 7.79708 48.2012 7.661 48.1607 7.6163C48.1191 7.57061 47.8205 7.213 47.4956 6.82062C46.7802 5.9584 46.1709 5.35545 45.1001 4.4515C43.3783 2.99824 40.8372 1.63339 38.5412 0.928111C37.0437 0.468193 35.66 0.192032 34.215 0.0638909C33.2196 -0.0245168 31.1642 -0.0205326 30.1534 0.0718485ZM30.8513 1.14962C30.6829 1.30259 30.6632 1.36319 30.7321 1.52808C30.7781 1.63635 30.8152 1.73967 30.8152 1.75755C30.8152 1.77543 30.5921 1.79033 30.3186 1.79033C30.0462 1.79033 29.8231 1.75954 29.8231 1.72179C29.8231 1.64729 30.5111 1.11088 30.7715 0.982738C31.0285 0.85559 31.0723 0.948964 30.8513 1.14962ZM33.7074 1.00957L33.9142 1.12379L33.7074 1.08208C33.5937 1.06022 33.4525 1.04134 33.3924 1.04035C33.3333 1.03936 33.3071 1.00559 33.3355 0.963867C33.4022 0.865526 33.4602 0.872485 33.7074 1.00957ZM29.9478 1.18936C29.7673 1.37015 29.6109 1.38207 29.5431 1.22115C29.4698 1.0493 29.4676 1.05129 29.7608 1.02447C30.1097 0.993672 30.1272 1.00857 29.9478 1.18936ZM35.7322 1.24896C35.9597 1.3324 36.2572 1.45458 36.3929 1.52014C36.5296 1.5857 36.6871 1.63933 36.744 1.63933C36.8009 1.63933 36.8479 1.67411 36.8479 1.71483C36.8479 1.75953 36.534 1.79033 36.0724 1.79033H35.2968L34.8319 1.44265C34.5771 1.25193 34.3681 1.07214 34.3681 1.04432C34.3681 0.951941 35.3056 1.093 35.7322 1.24896ZM34.5541 1.59066C34.751 1.73073 34.7357 1.79033 34.5049 1.79033C34.2872 1.79033 34.087 1.6155 33.9973 1.3473L33.936 1.1665L34.1734 1.32743C34.3036 1.41484 34.4753 1.53404 34.5541 1.59066ZM28.1703 1.64232C28.1703 1.74861 27.9734 1.80821 27.7426 1.77146L27.5501 1.74066L27.7568 1.65822C28.0237 1.54995 28.1703 1.54497 28.1703 1.64232ZM37.9637 1.73272C38.0194 1.78537 37.9549 1.7943 37.7591 1.76152C37.6016 1.7347 37.4342 1.67511 37.3872 1.63041C37.3259 1.5718 37.3839 1.56385 37.5917 1.60259C37.7504 1.6314 37.9177 1.691 37.9637 1.73272ZM28.5006 2.20256C28.6045 2.3168 28.5673 2.39826 28.2337 2.77573C28.0314 3.0042 27.4986 3.21678 27.3313 3.13532C27.247 3.0946 27.1792 3.02207 27.1792 2.97538C27.1792 2.86016 27.5129 2.5413 27.6321 2.5413C27.6835 2.5413 27.8334 2.43997 27.9635 2.3158C28.2293 2.06349 28.3508 2.03866 28.5006 2.20256ZM31.5897 2.24429L31.9715 2.39826L31.9682 3.80185L31.9649 5.20644L31.7921 4.90645C31.698 4.74056 31.6116 4.59653 31.6017 4.5856C31.5427 4.52302 31.3206 4.67699 31.2408 4.83494C31.127 5.06142 30.8973 5.07831 30.8973 4.86076C30.8973 4.71871 30.778 4.55084 30.3372 4.079C30.1513 3.87934 29.6065 3.59225 29.414 3.59225C29.2259 3.59225 29.1624 3.7353 29.1624 4.15648C29.1624 4.43462 29.1219 4.51309 28.8835 4.69388C28.6822 4.84686 28.5652 5.02765 28.4667 5.34055C28.2731 5.95245 28.1189 6.06966 27.5128 6.06966C27.0819 6.06966 26.9933 6.04383 26.8106 5.86404C26.6946 5.75079 26.6006 5.63755 26.6006 5.61271C26.6006 5.58788 26.699 5.40114 26.8193 5.1985C27.573 3.93099 27.7502 3.74225 28.1845 3.74225C28.5313 3.74225 28.5805 3.64094 28.4197 3.25751C28.3486 3.08764 28.3748 3.02604 28.6264 2.78268L28.9152 2.50355L28.8944 2.9138C28.8769 3.25054 28.8977 3.32902 29.0147 3.35087C29.0935 3.36478 29.239 3.30716 29.3407 3.22173C29.577 3.02108 29.5999 3.02406 29.8778 3.29226C30.1283 3.53265 30.4586 3.58928 30.5374 3.40452C30.6205 3.20783 30.4991 2.96346 30.1567 2.63466C29.6525 2.1519 29.6929 2.09032 30.5155 2.09032C31.0329 2.09032 31.3031 2.12906 31.5897 2.24429ZM35.4543 2.37243C36.2419 3.12737 37.0503 4.18429 37.6749 5.27598C38.0052 5.85311 38.0555 5.99019 37.9527 6.02595C37.8827 6.04979 36.6565 6.06966 35.2279 6.06966H32.6311L32.467 5.82629C32.3182 5.60478 32.3029 5.44782 32.3051 4.15548C32.3073 2.67341 32.3488 2.56415 32.5895 3.41346C32.7765 4.07602 32.9439 4.36707 33.2218 4.5121C33.7162 4.77037 33.831 4.63924 33.9153 3.71642C33.9514 3.32206 34.0367 2.95254 34.1307 2.78566C34.2161 2.63368 34.2861 2.41515 34.2861 2.29992C34.2861 2.09727 34.2992 2.09032 34.7236 2.09032C35.1218 2.09032 35.1874 2.11615 35.4543 2.37243ZM37.956 2.24628C38.1824 2.36846 38.2579 2.46481 38.2929 2.67838C38.3181 2.83036 38.3782 3.10651 38.4264 3.29226C38.4745 3.47802 38.5456 3.84954 38.5839 4.11774C38.6845 4.82202 38.8792 5.47861 39.0083 5.55312C39.3047 5.72397 39.7095 5.55908 39.7543 5.25015C39.7992 4.94718 39.9731 4.98492 40.4063 5.39219C40.7027 5.66933 40.8723 5.77265 41.0024 5.75577C41.1578 5.7359 41.1851 5.68722 41.1764 5.44485C41.1687 5.21836 41.0954 5.08923 40.8383 4.84388C40.4785 4.50117 40.0464 3.7949 40.0869 3.6161C40.1055 3.52968 40.1897 3.55948 40.4424 3.74126C41.3087 4.36707 42.7143 5.58392 42.7154 5.70808C42.7154 5.7359 42.6159 5.83026 42.4934 5.91668C42.2833 6.06767 42.1849 6.07462 40.4599 6.06667C39.4634 6.0627 38.5981 6.04184 38.5368 6.01999C38.4756 5.99913 38.2524 5.67232 38.0413 5.29385C37.8313 4.91539 37.606 4.55282 37.5425 4.48726C37.478 4.4217 37.4266 4.34422 37.4266 4.31442C37.4266 4.21012 36.7407 3.32504 36.2189 2.75685C35.928 2.43997 35.6906 2.16084 35.6906 2.13601C35.6906 2.11117 36.1347 2.09032 36.6773 2.09032C37.5294 2.09032 37.7044 2.11217 37.956 2.24628ZM40.8635 3.5406C40.986 3.74721 40.9795 3.74523 40.5682 3.4661C40.1853 3.20684 40.1612 3.17207 40.2925 3.08465C40.4172 3.00221 40.4599 3.01314 40.5878 3.15817C40.6699 3.25253 40.7935 3.42438 40.8635 3.5406ZM22.4679 3.66775C22.3706 3.79093 22.2667 3.89324 22.2349 3.89423C22.2043 3.89522 22.0698 4.03032 21.9363 4.19422C21.8018 4.35912 21.6508 4.49322 21.5994 4.49322C21.4364 4.49322 21.1422 4.83593 21.0536 5.12996C21.0054 5.28591 20.8271 5.55014 20.6554 5.71703C20.3677 5.99715 20.3032 6.02397 19.8295 6.05476C19.5462 6.07363 19.2793 6.05574 19.2345 6.01502C19.1809 5.96634 19.3176 5.79749 19.6326 5.52432C20.4169 4.84189 20.6543 4.65812 21.4353 4.12568C22.5248 3.38266 22.7797 3.26942 22.4679 3.66775ZM27.2952 3.91112C27.2635 3.96277 27.0753 4.24489 26.8773 4.53693C26.6793 4.82997 26.5174 5.1081 26.5174 5.15677C26.5174 5.20445 26.4846 5.2442 26.4442 5.2442C26.2648 5.2442 26.2046 4.37005 26.3643 4.0939C26.4999 3.86146 26.5951 3.81973 26.9976 3.81873C27.2591 3.81774 27.3378 3.84258 27.2952 3.91112ZM42.0591 4.4217C42.5131 4.72865 42.8084 5.02168 42.9047 5.26307C42.9987 5.49452 42.8686 5.40709 42.1565 4.75645C41.7725 4.40481 41.4936 4.11774 41.5351 4.11774C41.5767 4.11774 41.813 4.25482 42.0591 4.4217ZM19.7409 6.35375C19.7409 6.47593 19.2334 6.67858 18.8188 6.72328L18.3889 6.76997L18.5749 6.53256C18.7477 6.31204 18.7947 6.29515 19.2509 6.29515C19.5211 6.29515 19.7409 6.32196 19.7409 6.35375ZM27.7568 6.40342C27.7568 6.46302 27.7229 6.53058 27.6813 6.55442C27.6387 6.57826 27.5807 6.69844 27.5501 6.82261C27.48 7.11267 27.2733 7.21598 27.0086 7.0928C26.8522 7.02128 26.8095 6.94479 26.8193 6.75804C26.8259 6.62493 26.8773 6.46699 26.9331 6.40541C27.0698 6.25541 27.7568 6.25343 27.7568 6.40342ZM38.4078 6.68256C38.5051 6.89513 38.5718 7.08187 38.5554 7.09677C38.539 7.11068 38.399 7.0044 38.2448 6.86037C37.9112 6.54846 37.7854 6.53156 37.6607 6.7799C37.56 6.98055 37.6694 7.33617 37.9101 7.59345C37.9801 7.66795 38.1168 7.95304 38.2153 8.2282C38.4231 8.8103 38.5598 8.92552 38.8683 8.77453C38.9996 8.71095 39.11 8.69804 39.1549 8.74076C39.1943 8.7795 39.3015 9.08049 39.3912 9.41127C39.564 10.042 39.5432 10.1185 39.203 10.1255C38.9974 10.1304 38.8059 10.2596 38.6758 10.4821C38.5926 10.6241 38.6112 10.7404 38.7939 11.1953C38.9339 11.545 39.016 11.9125 39.0247 12.2264L39.0378 12.7151L35.6698 12.735L32.3029 12.7539V11.0751V9.39537L32.5709 9.32584C32.9067 9.23843 32.9625 9.003 32.7142 8.71692C32.4101 8.36527 32.3149 8.05735 32.3149 7.41465C32.3149 6.85937 32.3368 6.77294 32.5359 6.54646L32.7569 6.29515H35.4937H38.2306L38.4078 6.68256ZM40.8559 6.47892C40.648 6.59415 40.4555 6.64679 40.3396 6.62096C40.123 6.57228 40.1284 6.55341 40.1186 7.41961C40.1109 8.17554 40.0289 8.23416 39.5388 7.83583C39.3605 7.6908 39.1877 7.57159 39.156 7.57159C39.1243 7.57159 39.0772 7.51299 39.0532 7.44048C39.028 7.36797 38.912 7.08088 38.7961 6.80175L38.5861 6.29515H39.8856L41.1862 6.29614L40.8559 6.47892ZM42.0777 6.37859C42.0121 6.43819 41.918 6.44018 41.7517 6.38455C41.5198 6.30806 41.5209 6.30707 41.8436 6.30111C42.0832 6.29714 42.1455 6.31701 42.0777 6.37859ZM46.521 7.36498C46.7015 7.5408 46.8732 7.7643 46.9017 7.86264C46.9629 8.07621 46.7299 8.7934 46.556 8.92452C46.4893 8.97519 46.4335 9.09936 46.4335 9.19969C46.4335 9.46392 46.684 10.1314 46.8612 10.341C46.9443 10.4394 47.0121 10.6182 47.0121 10.7374C47.0121 11.1844 47.4967 11.094 47.6181 10.6242C47.6892 10.35 47.9233 10.2447 48.048 10.4294C48.1093 10.5188 47.9288 11.4695 47.8271 11.5927C47.7822 11.6483 47.5952 11.6473 47.2014 11.5897L46.6402 11.5062L46.4138 10.9221C46.2464 10.489 46.2092 10.3013 46.2694 10.198C46.3766 10.0162 46.3744 9.47783 46.2661 9.29406C46.2169 9.21062 46.0933 9.14803 45.9763 9.14803C45.7236 9.14803 45.4742 8.92851 45.2663 8.52124C45.1788 8.35038 45.0607 8.14873 45.006 8.07423C44.9218 7.96099 44.9327 7.92026 45.0651 7.82987C45.1537 7.77027 45.2937 7.72159 45.3779 7.72159C45.4665 7.72159 45.565 7.63715 45.6153 7.51596C45.7247 7.25471 45.9303 7.04612 46.078 7.04612C46.1414 7.04612 46.3405 7.18916 46.521 7.36498ZM31.4672 7.69179C31.5886 7.81794 31.71 7.87357 31.8128 7.84874C31.931 7.82093 31.9715 7.84973 31.9715 7.96198C31.9715 8.13681 31.617 8.41694 31.08 8.66726C31.0209 8.69408 30.9279 8.66626 30.8732 8.60368C30.8185 8.5411 30.6807 8.46959 30.5669 8.44475C30.0014 8.3176 29.8012 7.87158 30.311 7.87158C30.4455 7.87158 30.6041 7.82788 30.6643 7.77324C30.8076 7.64411 31.0811 7.50206 31.1926 7.49908C31.2408 7.49808 31.3644 7.58451 31.4672 7.69179ZM16.7284 9.36061C16.6059 9.67749 16.4725 9.99536 16.4298 10.0669C16.3871 10.1384 16.3532 10.5 16.3532 10.8695C16.3532 11.24 16.316 11.5629 16.2701 11.5887C16.2252 11.6145 16.188 11.846 16.188 12.1032C16.188 12.3685 16.1443 12.6118 16.0885 12.6625C15.9496 12.7886 14.9553 12.7827 14.9017 12.6545C14.8623 12.5632 15.0045 12.1757 15.4978 11.0255C15.7067 10.5377 16.6212 8.9007 16.793 8.70799C16.9767 8.50237 16.9483 8.78547 16.7284 9.36061ZM44.1768 8.9295C44.3956 9.09737 44.6767 9.31393 44.8014 9.41028C44.9272 9.50664 45.0289 9.64967 45.0289 9.72815C45.0289 9.89602 45.3976 10.2377 45.6809 10.3321C45.8242 10.3808 45.9303 10.5288 46.0725 10.8804C46.3143 11.4854 46.3143 11.4983 46.0539 11.7536C45.9347 11.8698 45.7772 12.0794 45.7017 12.2214C45.5956 12.4221 45.4753 12.5075 45.1526 12.6098C44.9261 12.6814 44.6592 12.7439 44.5608 12.7469C44.3376 12.7539 43.7502 12.2751 43.5599 11.9304C43.4724 11.7705 43.3127 11.6334 43.1431 11.5718C42.8828 11.4764 42.8576 11.4824 42.6465 11.688C42.3741 11.9532 42.035 12.1142 41.6019 12.1857C41.4039 12.2185 41.149 12.3416 40.9609 12.4966C40.7891 12.6367 40.6141 12.7529 40.5714 12.7529C40.3767 12.7529 40.4041 12.5691 40.6294 12.3516C40.764 12.2214 40.974 11.9582 41.0943 11.7665C41.2814 11.4715 41.3011 11.388 41.2245 11.2063C41.1359 10.9937 41.2464 10.65 41.4028 10.65C41.4389 10.65 41.4925 10.5338 41.522 10.3907C41.5767 10.1225 41.7933 9.94271 42.1608 9.85927C42.3227 9.82152 42.4387 9.8682 42.687 10.0699C42.8609 10.2119 43.1344 10.3679 43.2941 10.4165C43.6551 10.5268 43.7973 10.6321 43.9548 10.9072C44.1407 11.2321 44.3497 11.3225 44.4962 11.1427C44.7675 10.8109 44.5619 9.9298 44.1735 9.76093C44.0434 9.70431 43.8694 9.59703 43.7863 9.52054C43.7032 9.44504 43.5402 9.32684 43.4232 9.2573C43.0589 9.04075 43.2 8.63249 43.6397 8.62553C43.7163 8.62355 43.9581 8.76063 44.1768 8.9295ZM31.4825 9.11723C31.6335 9.25829 31.8052 9.37353 31.8643 9.37353C31.9496 9.37353 31.9715 9.72417 31.9715 11.0642V12.7549L29.5551 12.735L27.1377 12.7151L27.1388 12.2949C27.1409 11.7367 27.3827 11.4178 28.0882 11.0463C28.3836 10.8904 28.8528 10.5715 29.1318 10.3381C29.4107 10.1036 29.764 9.85431 29.9172 9.78279C30.3722 9.57021 30.5877 9.38544 30.7398 9.07651C30.9137 8.72486 31.0734 8.73281 31.4825 9.11723ZM40.2433 9.30399C40.5299 9.48875 40.5463 9.64173 40.3045 9.87616C40.0322 10.1384 39.8528 10.1006 39.7915 9.76787C39.7631 9.61291 39.7171 9.41027 39.6887 9.3169C39.6471 9.17883 39.6712 9.14803 39.821 9.14803C39.9217 9.14803 40.112 9.21856 40.2433 9.30399ZM15.8872 13.334C15.7855 13.8436 15.8052 14.6124 15.9233 14.7197C16.1082 14.8886 16.2581 14.6204 16.3488 13.9558C16.3959 13.6062 16.4364 13.2853 16.4364 13.2426C16.4374 13.1999 16.4713 13.1165 16.5129 13.0578C16.5753 12.9684 16.6103 12.9664 16.7186 13.0479C16.8816 13.1711 16.8826 13.4542 16.7251 14.2042C16.5381 15.0912 16.5611 15.6147 16.8072 16.0557C17.1561 16.6825 17.2086 16.6567 15.5613 16.6567H14.1097L14.1644 15.9624C14.195 15.5799 14.288 14.9472 14.3711 14.5548C14.4543 14.1624 14.5472 13.7065 14.5768 13.5426C14.6752 13.0102 14.7201 12.9774 15.3731 12.9774H15.9583L15.8872 13.334ZM22.2382 13.1651C22.5478 13.3568 23.0904 13.4224 23.144 13.2754C23.1899 13.1512 23.8856 12.9585 23.9797 13.0439C24.0322 13.0926 24.0278 13.3608 23.9687 13.8178C23.9184 14.2022 23.8517 14.9988 23.8221 15.5869L23.7674 16.6567H21.5108C19.2727 16.6567 19.2531 16.6557 19.1262 16.4899C18.9479 16.2584 18.9643 16.1074 19.2038 15.7866C19.3537 15.5859 19.4106 15.4101 19.4106 15.1468C19.4106 14.381 20.2047 13.3389 20.861 13.2426C21.0404 13.2158 21.28 13.1472 21.3938 13.0886C21.6924 12.9347 21.8937 12.9526 22.2382 13.1651ZM24.753 13.2992C24.8241 13.4244 24.9532 13.5952 25.0385 13.6797C25.1534 13.7909 25.195 13.9439 25.195 14.2508C25.195 14.9909 25.6577 15.4766 25.9727 15.0674C26.0646 14.9492 26.104 14.7286 26.104 14.3472V13.7969L26.5732 13.3876L27.0425 12.9774H29.507H31.9715V14.8171V16.6567H28.0346H24.0978L24.1426 15.3992C24.1984 13.8605 24.3341 12.9704 24.5047 13.03C24.5703 13.0529 24.6808 13.1731 24.753 13.2992ZM40.0606 13.0449C40.1448 13.0946 40.0814 13.1602 39.8079 13.3052C39.5848 13.4244 39.3868 13.6042 39.3026 13.7651C39.2161 13.931 39.1057 14.0293 39.0061 14.0293C38.8048 14.0293 38.748 14.1694 38.748 14.6641C38.748 14.8826 38.69 15.2094 38.6178 15.3902C38.5237 15.6246 38.5019 15.8511 38.5379 16.1879L38.5872 16.6567H35.4456H32.3029V14.8171V12.9774L36.1249 12.9784C38.2262 12.9794 39.9972 13.0092 40.0606 13.0449ZM17.0533 17.5388C17.1539 18.7626 17.3585 20.2963 17.4755 20.7086C17.5401 20.9341 17.5926 21.1615 17.5926 21.2152C17.5926 21.2907 17.2644 21.3125 16.106 21.3125C14.6326 21.3125 14.6205 21.3105 14.5812 21.1427C14.3044 19.9705 14.1917 19.2205 14.148 18.261C14.1195 17.6362 14.1195 17.07 14.148 17.0034C14.1917 16.8981 14.3864 16.8822 15.5995 16.8822H16.9986L17.0533 17.5388ZM20.9803 16.9786C20.9803 17.1713 20.1457 17.507 19.8481 17.4335C19.6611 17.3878 19.3854 17.0551 19.4522 16.9567C19.532 16.8395 20.9803 16.8604 20.9803 16.9786ZM23.82 18.2838C23.8506 19.0547 23.9097 19.9079 23.9523 20.1801C23.9939 20.4513 24.0453 20.8178 24.0661 20.9927L24.1055 21.3125H23.6471C23.308 21.3125 23.1604 21.2778 23.0794 21.1804C22.9197 20.9897 22.9383 20.8735 23.1702 20.6232C23.3233 20.4583 23.3769 20.3122 23.3769 20.0679C23.3769 19.7272 23.3518 19.7053 22.9832 19.7321C22.4526 19.7719 21.9385 19.3904 21.6114 18.714C21.4725 18.4259 21.4714 18.3812 21.5928 18.0544C21.665 17.8607 21.7241 17.6312 21.7241 17.5448C21.7241 17.4574 21.8455 17.2726 21.9932 17.1345C22.259 16.8862 22.2699 16.8832 23.0127 16.8832L23.7642 16.8822L23.82 18.2838ZM31.9715 19.0974V21.3125H30.8962H29.8198L29.7225 21.1059C29.6689 20.9917 29.6229 20.8943 29.6207 20.8874C29.612 20.8615 27.6955 20.642 27.468 20.641C27.3313 20.64 27.025 20.6182 26.7865 20.5934C26.3862 20.5506 26.3173 20.5675 25.9125 20.8119C25.6697 20.9579 25.4236 21.1308 25.3645 21.1943C25.2934 21.2738 25.1173 21.3125 24.8285 21.3125H24.3997L24.2914 20.5427C24.2323 20.1195 24.1645 19.1222 24.1426 18.3275L24.1011 16.8822H28.0368H31.9715V19.0974ZM38.4176 16.9925C38.4176 17.0531 38.3553 17.2219 38.2787 17.368C38.1496 17.6133 38.1496 17.6521 38.2732 17.8885C38.3465 18.0285 38.5489 18.2371 38.7228 18.3524C38.8956 18.4676 39.3091 18.8004 39.6406 19.0924L40.2433 19.6229L40.1941 20.2983C40.1667 20.6698 40.1273 21.0503 40.1055 21.1427L40.0672 21.3125H36.185H32.3029V19.0974V16.8822H35.3603C37.991 16.8822 38.4176 16.8971 38.4176 16.9925ZM17.9459 18.0206C18.1176 18.1785 18.3594 18.3285 18.483 18.3553C19.031 18.4736 20.3261 19.009 20.5088 19.1927C20.5799 19.2643 20.7352 19.5603 20.8534 19.8503C21.0809 20.4076 21.2822 20.6371 21.8893 21.0324L22.2612 21.2748L20.1183 21.2947C18.6678 21.3086 17.9579 21.2887 17.9218 21.2351C17.7796 21.0255 17.469 19.1431 17.3782 17.9332C17.3355 17.3769 17.3377 17.3719 17.4843 17.5517C17.5663 17.6521 17.7742 17.8627 17.9459 18.0206ZM45.0705 20.055C45.3243 20.1752 45.3571 20.2596 45.3582 20.8049L45.3593 21.3125H42.8784H40.3975L40.4522 20.6927C40.4818 20.352 40.5211 20.0579 40.5397 20.0381C40.5583 20.0192 40.6458 20.045 40.7344 20.0947C40.9226 20.202 41.3262 20.2149 41.4378 20.1175C41.5647 20.0093 41.7627 19.9954 43.3761 19.9864C44.2928 19.9805 44.971 20.0083 45.0705 20.055ZM17.7162 21.7814C17.7446 21.8748 17.7993 22.0178 17.8365 22.1003C17.8748 22.1827 17.9864 22.4877 18.0859 22.7767C18.3342 23.5029 18.6285 24.1654 19.0365 24.9164C19.3624 25.5164 20.1227 26.7104 20.231 26.7928C20.2572 26.8137 20.3874 26.9826 20.5187 27.1683C20.6499 27.3541 20.9004 27.663 21.0754 27.8547C21.2505 28.0464 21.3938 28.2242 21.3938 28.2491C21.3938 28.2739 20.7867 28.2948 20.045 28.2948C18.5256 28.2948 18.763 28.3792 18.0378 27.5805C17.7129 27.2229 16.6004 25.7776 16.6004 25.7121C16.6004 25.6952 16.4724 25.4756 16.3171 25.2243C16.0732 24.833 15.7778 24.2628 15.3228 23.3022C15.1445 22.9257 14.8842 22.1926 14.8218 21.8936L14.7638 21.6125H16.2143C17.6473 21.6125 17.6648 21.6145 17.7162 21.7814ZM22.4154 21.7864C22.5215 22.1688 22.7698 22.3178 23.3879 22.3695C23.7084 22.3953 24.0179 22.4638 24.0803 22.5214C24.2542 22.6833 24.0923 23.2774 23.7445 23.7542C23.4513 24.1545 23.4459 24.1783 23.4174 25.0217C23.3901 25.8521 23.3955 25.8859 23.5804 25.9962C23.6865 26.0587 23.8604 26.1213 23.9676 26.1342C24.2564 26.171 24.3505 26.2455 24.4085 26.4869C24.4391 26.614 24.6458 26.8604 24.9029 27.0779C25.1457 27.2835 25.4608 27.6411 25.603 27.8736L25.8611 28.2948H23.8539H21.8466L21.4342 27.8001C21.2078 27.5289 20.965 27.2488 20.895 27.1782C20.6138 26.8951 19.6556 25.427 19.2235 24.6154C18.7652 23.7562 18.5639 23.2923 18.2467 22.3635C18.1559 22.0953 18.0596 21.8162 18.0334 21.7437C17.9896 21.6205 18.1275 21.6125 20.1774 21.6125H22.3673L22.4154 21.7864ZM24.1569 21.8092C24.1875 21.9175 24.1897 22.0258 24.1634 22.0496C24.1361 22.0744 24.0934 22.0198 24.0672 21.9284C24.03 21.7983 23.9578 21.7625 23.739 21.7625C23.5859 21.7625 23.4601 21.7287 23.4601 21.687C23.4601 21.6463 23.6045 21.6125 23.7817 21.6125C24.0595 21.6125 24.1109 21.6393 24.1569 21.8092ZM25.0298 21.6642C25.0298 21.7586 24.6721 22.0625 24.5616 22.0625C24.4949 22.0625 24.4511 21.9751 24.4511 21.838C24.4511 21.6304 24.4741 21.6125 24.741 21.6125C24.8996 21.6125 25.0298 21.6354 25.0298 21.6642ZM31.9715 21.9552C31.9715 22.2761 31.9594 22.2949 31.7855 22.2473C31.6838 22.2195 31.5066 22.1509 31.3939 22.0943C31.2801 22.0377 31.0471 21.9344 30.8765 21.8658C30.707 21.7963 30.5669 21.7109 30.5669 21.6761C30.5669 21.6413 30.8831 21.6125 31.2692 21.6125H31.9715V21.9552ZM39.9862 21.7437C39.984 21.9523 39.7543 23.1721 39.6088 23.7502C39.2894 25.0197 38.8639 26.2663 38.3815 27.3451C37.9177 28.3812 38.0315 28.2948 37.1334 28.2948H36.3513V28.0842C36.3513 27.9679 36.2966 27.808 36.231 27.7276C35.9849 27.4325 36.0702 27.2041 36.5208 26.9418C36.9201 26.7084 37.1783 26.4024 37.1783 26.1611C37.1783 26.0985 37.2931 25.9296 37.432 25.7846C37.7099 25.4975 37.7066 25.4031 37.4069 24.9412C37.2177 24.6492 36.7254 24.3909 36.3579 24.3909C36.1938 24.3909 36.08 24.3393 36.0209 24.2399C35.963 24.1406 35.8481 24.0899 35.6819 24.0899C35.4073 24.0899 35.1688 23.9936 34.9161 23.78C34.8254 23.7025 34.6536 23.6399 34.5344 23.6399C34.2522 23.6399 33.9317 23.4194 33.2535 22.7559C32.863 22.3744 32.6387 22.2135 32.4998 22.2135C32.3248 22.2135 32.3029 22.1797 32.3029 21.9125V21.6125H36.1457C39.75 21.6125 39.9873 21.6205 39.9862 21.7437ZM45.4282 21.9016C45.4807 22.0605 45.6317 22.3734 45.7629 22.5979L46.0025 23.0042L45.6918 23.6926C45.0344 25.1488 44.1046 26.5902 43.0272 27.8259L42.6181 28.2948H40.4763C39.2993 28.2948 38.3356 28.2679 38.3356 28.2352C38.3356 28.2024 38.4865 27.8398 38.6714 27.4286C39.1571 26.3478 39.6187 25.0247 39.8189 24.1346C40.0519 23.1025 40.1492 22.6406 40.2356 22.1569L40.3341 21.6125H42.8336H45.333L45.4282 21.9016ZM46.0648 23.9211C46.0331 24.076 45.9336 24.3552 45.8428 24.5409C45.6109 25.0147 45.6251 25.4071 45.8898 25.8293C46.1885 26.3051 46.2278 26.765 46.043 27.5815L45.8887 28.257L44.5083 28.2779C43.0392 28.2997 42.9167 28.2669 43.2952 27.956C43.386 27.8805 43.5905 27.6471 43.748 27.4375C43.9056 27.2279 44.1385 26.921 44.2665 26.7561C44.8014 26.0617 45.938 24.0869 45.938 23.8505C45.938 23.7432 46.0102 23.6399 46.0845 23.6399C46.1053 23.6399 46.0966 23.7661 46.0648 23.9211ZM22.6473 29.4411C23.5049 30.2159 23.9643 30.5934 24.4697 30.9381C24.5736 31.0086 24.7694 31.1476 24.9062 31.246C25.0429 31.3453 25.5078 31.6423 25.9388 31.9066L26.7242 32.3873L25.8294 32.4082C25.0057 32.4281 24.8974 32.4142 24.4653 32.2294C22.7863 31.5112 20.9409 30.3341 19.5057 29.0646L18.9752 28.5957H20.3426H21.711L22.6473 29.4411ZM26.6312 29.1123C26.9211 29.6368 27.13 29.9576 27.666 30.6957C27.876 30.9867 27.9657 31.1953 27.969 31.4049C27.9723 31.5678 28.0182 31.7148 28.0729 31.7317C28.1265 31.7476 28.1703 31.7953 28.1703 31.837C28.1703 31.8787 28.2446 31.9989 28.3354 32.1042C28.4262 32.2085 28.5006 32.3238 28.5006 32.3595C28.5006 32.3953 28.2523 32.4241 27.9471 32.4241C27.5063 32.4241 27.3345 32.3893 27.1005 32.2493C26.9386 32.1529 26.5284 31.9085 26.1871 31.7079C24.9434 30.9728 24.0059 30.2775 22.8245 29.2146L22.1354 28.5957H24.24H26.3457L26.6312 29.1123ZM27.4046 28.6563C27.4614 28.6891 27.5599 28.9881 27.6233 29.3219C27.6879 29.6547 27.8158 30.0838 27.9088 30.2755C28.0018 30.4662 28.0478 30.6222 28.0106 30.6222C27.934 30.6222 27.491 29.9745 26.9955 29.1401L26.6728 28.5957L26.9878 28.5967C27.1606 28.5967 27.3488 28.6246 27.4046 28.6563ZM37.7569 28.6285C37.7569 28.6643 37.6618 28.8212 37.0492 29.7967C36.6335 30.4593 35.7661 31.5529 35.2181 32.1052L34.9019 32.4241H34.0214H33.1408L33.2086 32.2185C33.3268 31.8589 33.3815 31.7933 33.8179 31.4824C34.2095 31.2023 34.2489 31.1457 34.3069 30.7692C34.3922 30.2238 34.5475 30.054 35.369 29.609C35.9903 29.2722 36.0745 29.1997 36.1741 28.9136L36.2846 28.5957H37.0207C37.4255 28.5957 37.7569 28.6106 37.7569 28.6285ZM42.0088 28.9037C41.569 29.3189 40.1744 30.4652 39.8265 30.6977C39.6712 30.801 39.3748 31.0046 39.1669 31.1506C38.9602 31.2956 38.585 31.5351 38.3356 31.6811C38.0851 31.8271 37.6979 32.0536 37.4736 32.1857C37.0831 32.4152 37.035 32.4241 36.2003 32.4241C35.3854 32.4241 35.3417 32.4171 35.4543 32.293C35.7015 32.0248 36.068 31.6086 36.2277 31.4168C36.3185 31.3086 36.4301 31.1784 36.476 31.1278C36.7779 30.792 37.5108 29.6845 37.9658 28.8769L38.1245 28.5957H40.2302H42.3359L42.0088 28.9037ZM45.3495 28.7209C45.2543 28.8252 44.983 29.0646 44.2523 29.6864C44.202 29.7291 43.9198 29.9397 43.6244 30.1543C43.3291 30.3679 43.0305 30.5864 42.9626 30.639C42.8937 30.6917 42.6334 30.8526 42.384 30.9957C42.1346 31.1387 41.9114 31.2788 41.8885 31.3066C41.8655 31.3344 41.3393 31.5986 40.7191 31.8936L39.5913 32.4301L38.6539 32.4082L37.7154 32.3873L38.3356 32.0178C39.5498 31.2937 40.6229 30.504 41.6817 29.5563L42.7559 28.5957H44.109C45.3626 28.5957 45.4545 28.6047 45.3495 28.7209ZM27.6748 32.8781C27.9242 33.0032 28.3059 33.177 28.5214 33.2635C28.9185 33.4224 29.0738 33.6131 28.7281 33.5168C28.6264 33.488 28.3004 33.4154 28.0051 33.3558C27.2088 33.1939 25.8567 32.7916 25.8567 32.7161C25.8567 32.6794 26.163 32.6496 26.5382 32.6496C27.1431 32.6496 27.2711 32.6754 27.6748 32.8781ZM28.6592 32.8184C28.7533 33.0449 28.726 33.0569 28.4262 32.9158C28.1167 32.7708 28.0948 32.6496 28.3792 32.6496C28.5203 32.6496 28.6122 32.7052 28.6592 32.8184ZM34.4852 32.7141C34.5092 32.7489 34.3342 32.9327 34.0968 33.1204C33.283 33.7661 33.2622 33.776 32.7612 33.776H32.2952L32.3193 33.2694C32.3434 32.7747 32.3488 32.7628 32.5917 32.7151C32.9702 32.6426 34.4359 32.6416 34.4852 32.7141ZM36.3513 32.7122C36.3513 32.7986 34.4698 33.6111 34.1264 33.6737C33.8551 33.7234 33.866 33.7075 34.4589 33.19L35.0704 32.6545L35.7114 32.6526C36.0636 32.6506 36.3513 32.6774 36.3513 32.7122ZM38.5828 32.7201C38.5828 32.8393 35.5812 33.627 35.4795 33.5347C35.462 33.5178 35.753 33.3588 36.1271 33.18C36.5001 33.0002 36.8796 32.8085 36.9693 32.7519C37.1575 32.6347 38.5828 32.6059 38.5828 32.7201Z" fill="white"/>
</svg>
