<svg width="29" height="26" viewBox="0 0 29 26" fill="none" xmlns="http://www.w3.org/2000/svg">
<path fill-rule="evenodd" clip-rule="evenodd" d="M1.99427 11.0955C9.78148 7.48207 14.9742 5.09986 17.5724 3.9489C24.9907 0.662659 26.5321 0.0918049 27.5369 0.0729549C27.7578 0.068809 28.2519 0.127135 28.572 0.403724C28.8422 0.637269 28.9166 0.952756 28.9521 1.17418C28.9877 1.39561 29.032 1.90003 28.9968 2.29416C28.5948 6.79277 26.8553 17.7097 25.9704 22.7482C25.596 24.8802 24.8587 25.5951 24.1449 25.665C22.5936 25.817 21.4157 24.5732 19.9132 23.5242C17.5622 21.8828 16.234 20.8611 13.9519 19.2594C11.3146 17.4084 13.0242 16.391 14.5273 14.7284C14.9206 14.2933 21.7554 7.6721 21.8877 7.07146C21.9042 6.99634 21.9196 6.71633 21.7634 6.56847C21.6072 6.42061 21.3767 6.47117 21.2103 6.51139C20.9745 6.56838 17.2187 9.21231 9.94288 14.4432C8.8768 15.2228 7.91118 15.6027 7.04602 15.5828C6.09225 15.5609 4.25757 15.0085 2.89368 14.5363C1.22082 13.9571 -0.108747 13.6509 0.00702787 12.6673C0.0673307 12.155 0.729743 11.6311 1.99427 11.0955Z" fill="white"/>
</svg>
