<svg width="30" height="26" viewBox="0 0 30 26" fill="none" xmlns="http://www.w3.org/2000/svg">
<path d="M21.9276 0L7.43754 0C3.43439 0 0.177734 3.00212 0.177734 6.69237L0.177734 18.9126C0.177734 22.6028 3.43439 25.6049 7.43754 25.6049L21.9276 25.6049C25.9308 25.6049 29.1874 22.6028 29.1874 18.9126V6.69237C29.1874 3.00212 25.9308 0 21.9276 0ZM2.73877 6.69237C2.73877 4.30429 4.84698 2.36086 7.43754 2.36086L21.9276 2.36086C24.5182 2.36086 26.6264 4.30429 26.6264 6.69237V18.9126C26.6264 21.3007 24.5182 23.2441 21.9276 23.2441L7.43754 23.2441C4.84698 23.2441 2.73877 21.3007 2.73877 18.9126L2.73877 6.69237Z" fill="white"/>
<path d="M14.6366 21.4626C19.725 21.4626 23.867 17.6464 23.867 12.9537C23.867 8.26101 19.7272 4.44482 14.6366 4.44482C9.54602 4.44482 5.40625 8.26101 5.40625 12.9537C5.40625 17.6464 9.54602 21.4626 14.6366 21.4626ZM14.6366 7.67391C17.7964 7.67391 20.3663 10.043 20.3663 12.9558C20.3663 15.8686 17.7964 18.2377 14.6366 18.2377C11.4769 18.2377 8.90688 15.8686 8.90688 12.9558C8.90688 10.043 11.4769 7.67391 14.6366 7.67391Z" fill="white"/>
</svg>
