<svg width="59" height="59" viewBox="0 0 59 59" fill="none" xmlns="http://www.w3.org/2000/svg">
<path d="M5.90149 0.222796C3.18164 0.937333 0.92278 3.20772 0.231293 5.93909C0.000797565 6.81497 0.000797563 7.31054 0.000797563 29.4842C0.000797563 54.6889 -0.0568263 52.7873 0.807533 54.5622C1.56817 56.1411 2.85894 57.4318 4.43784 58.1925C6.21266 59.0568 4.31107 58.9992 29.5042 58.9992C54.6974 58.9992 52.7958 59.0568 54.5707 58.1925C56.6336 57.1898 58.2125 55.2652 58.7772 53.0524C59.0077 52.1765 59.0077 51.681 59.0077 29.4958C59.0077 7.31054 59.0077 6.81497 58.7772 5.93909C58.0742 3.18467 55.8153 0.925808 53.0609 0.222796C52.185 -0.00769987 51.701 -0.00769987 29.4581 0.00382492C7.49191 0.00382492 6.71975 0.0153497 5.90149 0.222796ZM32.5583 11.4018C36.4191 12.0588 39.8996 13.9258 42.6656 16.7954C45.0397 19.2733 46.6186 22.3043 47.3907 25.8424C47.7365 27.4213 47.7595 30.9594 47.4483 32.5498C46.1115 39.2803 41.5937 44.478 35.209 46.6331C33.2152 47.3015 31.7977 47.5205 29.5042 47.5205C27.8793 47.5205 27.2339 47.4744 26.1851 47.267C24.7676 46.9789 23.2693 46.5179 22.0938 45.9877L21.3562 45.6535L16.8155 46.7368C14.3146 47.3361 12.1364 47.8202 11.9751 47.8202C11.8137 47.8202 11.5832 47.7164 11.468 47.6012C11.2836 47.3822 11.3066 47.1748 12.2747 42.5072L13.2774 37.6438L12.874 36.7679C11.03 32.7342 10.7995 27.8938 12.2286 23.5835C13.7038 19.1695 17.1727 15.1589 21.3101 13.0845C22.9236 12.2777 25.194 11.5517 26.9342 11.2981C28.2596 11.1022 31.1177 11.1598 32.5583 11.4018Z" fill="white"/>
<path d="M27.4889 15.0894C24.9765 15.4928 22.6024 16.4955 20.6778 17.9706C19.7328 18.7082 18.1539 20.4139 17.52 21.3935C15.895 23.8598 15.1689 26.3491 15.1689 29.3802C15.1689 31.8234 15.6415 33.8172 16.7709 36.0645L17.301 37.1248L16.7133 39.9484C16.3906 41.5042 16.1601 42.8065 16.1947 42.8411C16.2292 42.8757 17.5085 42.6106 19.0528 42.2533L21.8418 41.608L22.879 42.1151C25.0342 43.1984 27.074 43.6709 29.5173 43.6709C32.0182 43.6709 33.793 43.256 36.0288 42.1612C39.9357 40.225 42.7823 36.4564 43.6352 32.0654C43.9118 30.7055 43.9118 28.0663 43.6467 26.7064C43.0589 23.733 41.8142 21.3935 39.6591 19.2268C37.5847 17.1408 35.4641 15.9653 32.6175 15.3084C31.4765 15.0433 28.5838 14.9281 27.4889 15.0894ZM24.1929 20.8518C24.4233 21.0132 24.7576 21.624 25.403 23.0992C26.4171 25.4041 26.4171 25.358 25.5874 26.4529C24.6884 27.6399 24.6999 28.0548 25.6911 29.288C26.8897 30.7977 29.4712 32.9989 30.8427 33.6789C31.8223 34.1514 32.2026 34.0708 33.1246 33.1833C34.1848 32.1692 34.1272 32.1692 36.5013 32.8491C38.691 33.4715 39.1059 33.6904 39.2442 34.3589C39.3479 34.8083 38.9792 35.5229 38.1955 36.3988C37.3887 37.2746 36.7664 37.7126 35.9597 37.9546C35.0838 38.2197 33.4818 38.1966 32.2717 37.9085C28.0537 36.8943 22.418 31.8465 20.8507 27.6745C20.5049 26.741 20.4703 26.5681 20.4703 25.2312C20.4588 23.9405 20.4819 23.733 20.7239 23.272C21.4615 21.866 22.7523 20.6213 23.4783 20.6213C23.6973 20.6213 24.02 20.7251 24.1929 20.8518Z" fill="white"/>
</svg>
